<svg width="32" height="32" viewBox="0 0 32 32" fill="none" xmlns="http://www.w3.org/2000/svg">
<path d="M3.72411 3.73144V31.4508C3.72411 31.7453 3.96278 31.9839 4.25723 31.9839H24.5137C24.808 31.9839 25.0466 31.7453 25.0466 31.4508V9.06224C25.0466 9.05038 25.0409 9.04028 25.0398 9.02864C25.0372 8.98187 25.028 8.93576 25.0126 8.89163C25.0067 8.8745 25.0025 8.85804 24.995 8.84135C24.9691 8.78338 24.9331 8.73046 24.8883 8.68523L19.5578 3.35465C19.5125 3.30964 19.4594 3.27363 19.401 3.24794C19.3849 3.24113 19.3687 3.23542 19.352 3.23037C19.3074 3.215 19.2611 3.20578 19.2139 3.2027C19.2049 3.20424 19.1944 3.19853 19.1832 3.19853H4.25723C3.96278 3.19853 3.72411 3.43699 3.72411 3.73144ZM23.2268 8.52911H19.7161V5.01836L23.2268 8.52911ZM4.79013 4.26456H18.65V9.06224C18.65 9.35647 18.8887 9.59514 19.1829 9.59514H23.9806V30.9179H4.79013V4.26456Z" fill="#F1FFE7"/>
<path d="M26.1129 27.7194V28.7854H27.712C28.0065 28.7854 28.2452 28.5469 28.2452 28.2525V0.533124C28.2452 0.238676 28.0065 0 27.712 0H7.45552C7.16107 0 6.92239 0.238676 6.92239 0.533124V2.13228H7.98864V1.06603H27.1789V27.7194H26.1129Z" fill="#F1FFE7"/>
<path d="M7.98865 10.6614H20.7821V11.7274H7.98865V10.6614Z" fill="#F1FFE7"/>
<path d="M7.98865 7.46286H12.2532V8.52911H7.98865V7.46286Z" fill="#F1FFE7"/>
<path d="M7.98865 13.8597H16.5178V14.9259H7.98865V13.8597Z" fill="#F1FFE7"/>
<path d="M17.5838 13.8597H20.7821V14.9259H17.5838V13.8597Z" fill="#F1FFE7"/>
<path d="M7.98865 17.058H20.7821V18.1242H7.98865V17.058Z" fill="#F1FFE7"/>
<path d="M7.98865 23.4548H20.7821V24.5211H7.98865V23.4548Z" fill="#F1FFE7"/>
<path d="M12.7861 20.2565H20.7821V21.3225H12.7861V20.2565Z" fill="#F1FFE7"/>
<path d="M7.98865 20.2565H11.7201V21.3225H7.98865V20.2565Z" fill="#F1FFE7"/>
<path d="M7.98865 26.6534H10.1209V27.7194H7.98865V26.6534Z" fill="#F1FFE7"/>
<path d="M11.187 26.6534H20.7821V27.7194H11.187V26.6534Z" fill="#F1FFE7"/>
</svg>
