<?xml version="1.0" encoding="utf-8"?>
<!-- Generator: Adobe Illustrator 17.1.0, SVG Export Plug-In . SVG Version: 6.00 Build 0)  -->
<!DOCTYPE svg PUBLIC "-//W3C//DTD SVG 1.0//EN" "http://www.w3.org/TR/2001/REC-SVG-20010904/DTD/svg10.dtd">
<svg version="1.0" id="Слой_1" xmlns="http://www.w3.org/2000/svg" xmlns:xlink="http://www.w3.org/1999/xlink" x="0px" y="0px"
	 viewBox="0 0 600 600" enable-background="new 0 0 600 600" xml:space="preserve">
<g>
	<g>
		<path d="M534.5,311.2c-18-12.1-33.8-22.6-49.5-33.4c-25.9-17.9-54.4-22.9-85.1-18.4c-60.9,9-121.8,17.9-182.7,26.7
			c-5.1,0.7-10.3,0.6-16.1-2.9c70.4-16,140.9-32.1,212.3-48.3c-23.9-28.1-45.6-33.6-78.8-20.9c-43.9,16.8-87.6,34-131.5,50.9
			c-5.9,2.3-12,4.2-20,2.4c51.6-28.2,103.2-56.4,155-84.7c-23.7-29.5-35.6-31-62.8-9.1c-34.4,27.7-68.9,55.2-103.4,82.8
			c-1.1-1.2-2.3-2.3-3.4-3.5c35.3-37.6,70.7-75.2,105.7-112.5c-21.2-27.1-34.7-28-55-3.5c-42.3,51-83.9,102.5-125.8,153.7
			c-4.9,5.9-9.9,11.7-17.3,16.1c-0.9-73.5,29.4-131.9,86.5-176.5c76.5-59.8,179.9-64.8,264.6-13.8
			C493,155.9,545.7,249.3,534.5,311.2z"/>
	</g>
	<g>
		<path d="M120.7,356.9H74.9v25.5h39.3V393H74.9v43.5h-12v-90.4h57.7V356.9z"/>
		<path d="M145,436.6h-11.4v-94.5H145V436.6z"/>
		<path d="M226.2,368.8l-39.6,92.8h-12.2l12.6-28.3l-27-64.5h12.4l20.8,50.3l21-50.3H226.2z"/>
		<path d="M322.5,436.6h-23.3v-39.8h-34.4v39.8h-23.3v-90.4h23.3v33.1h34.4v-33.1h23.3V436.6z"/>
		<path d="M366.9,358.7h-23.1v-16.6h23.1V358.7z M366.3,436.6h-21.9v-68.2h21.9V436.6z"/>
		<path d="M453.1,428.7c0,6.4-0.9,11.8-2.7,16.1c-1.8,4.4-4.4,7.8-7.6,10.3c-3.3,2.5-7.2,4.3-11.9,5.4c-4.6,1.1-9.9,1.7-15.7,1.7
			c-4.7,0-9.4-0.3-14-0.8c-4.6-0.6-8.6-1.3-11.9-2.1v-17.1h2.7c2.7,1.1,5.9,2,9.8,2.9c3.8,0.9,7.3,1.3,10.3,1.3c4,0,7.3-0.4,9.9-1.1
			c2.5-0.8,4.5-1.8,5.8-3.2c1.3-1.3,2.2-3,2.7-5c0.6-2,0.8-4.5,0.8-7.3v-1.3c-2.6,2.1-5.5,3.8-8.7,5.1c-3.2,1.3-6.7,1.9-10.7,1.9
			c-9.5,0-16.9-2.9-22.1-8.6c-5.2-5.7-7.8-14.5-7.8-26.2c0-5.6,0.8-10.5,2.4-14.6c1.6-4.1,3.8-7.6,6.7-10.7c2.7-2.8,6-5,9.9-6.6
			c3.9-1.6,7.9-2.4,12-2.4c3.7,0,7,0.4,10,1.3c3,0.9,5.7,2.1,8.2,3.6l0.8-3h21.2V428.7z M431.2,415.1v-30.9
			c-1.3-0.5-2.8-0.9-4.6-1.2c-1.8-0.3-3.5-0.5-4.9-0.5c-5.7,0-10,1.7-12.9,4.9c-2.9,3.3-4.3,7.9-4.3,13.8c0,6.6,1.2,11.1,3.7,13.7
			c2.4,2.6,6.1,3.9,10.9,3.9c2.2,0,4.3-0.3,6.4-1C427.6,417.1,429.5,416.2,431.2,415.1z"/>
		<path d="M542.2,436.6h-21.9v-33.8c0-2.8-0.1-5.5-0.4-8.2c-0.3-2.7-0.8-4.7-1.5-6c-0.8-1.5-2-2.6-3.6-3.3c-1.6-0.7-3.7-1-6.5-1
			c-2,0-4,0.3-6,1c-2,0.6-4.3,1.7-6.6,3.1v48.3h-21.9v-94.5h21.9v33.8c3.9-3,7.6-5.4,11.2-7c3.6-1.6,7.5-2.4,11.9-2.4
			c7.4,0,13.1,2.1,17.2,6.4c4.1,4.3,6.2,10.7,6.2,19.2V436.6z"/>
	</g>
</g>
</svg>
